<?xml version="1.0" standalone="no"?>
<!DOCTYPE svg PUBLIC "-//W3C//DTD SVG 20010904//EN"
 "http://www.w3.org/TR/2001/REC-SVG-20010904/DTD/svg10.dtd">
<svg version="1.0" xmlns="http://www.w3.org/2000/svg"
 width="400.000000pt" height="177.000000pt" viewBox="0 0 400.000000 177.000000"
 preserveAspectRatio="xMidYMid meet">

<g transform="translate(0.000000,177.000000) scale(0.100000,-0.100000)"
fill="#000000" stroke="none">
<path d="M1934 1601 c-45 -15 -106 -43 -135 -62 l-54 -34 -312 -5 c-297 -5
-313 -6 -340 -26 -62 -47 -68 -68 -73 -304 -5 -203 -6 -214 -21 -190 -9 14
-46 70 -81 125 -36 55 -93 136 -127 180 -73 95 -78 125 -29 181 l32 36 -86 -3
c-100 -5 -130 -20 -163 -85 -19 -37 -20 -59 -21 -514 0 -498 -1 -509 -45 -556
-28 -30 -11 -38 64 -29 76 8 126 34 152 77 19 31 20 54 23 336 2 166 6 302 10
302 15 0 123 -179 175 -290 50 -108 107 -281 107 -325 0 -21 -9 -44 -25 -63
-33 -39 -21 -46 58 -37 100 11 148 47 166 125 6 27 11 222 11 498 0 394 2 457
16 490 l16 37 19 -40 c17 -37 18 -73 19 -510 0 -278 -4 -484 -10 -504 -5 -19
-22 -47 -36 -62 -23 -24 -25 -29 -11 -35 9 -3 130 -4 269 -2 230 3 257 5 299
24 58 27 113 76 141 126 15 26 28 38 39 35 9 -2 24 0 33 5 15 9 15 12 -4 42
-22 37 -26 87 -9 135 13 36 20 38 42 13 14 -15 17 -40 17 -133 0 -131 -10
-176 -46 -212 l-26 -26 27 -7 c14 -3 42 -4 61 -1 38 6 39 6 49 -55 7 -45 53
-94 96 -103 44 -10 58 7 36 44 -18 30 -23 110 -11 170 5 24 16 37 45 51 48 25
49 25 49 -5 0 -40 27 -84 58 -92 15 -5 147 -8 293 -8 286 0 306 3 328 52 7 16
11 117 11 294 0 282 -5 317 -45 333 -9 3 -56 6 -105 6 -95 0 -120 11 -120 53
-1 66 -92 150 -180 165 -44 7 -45 8 -45 47 l0 40 150 0 150 0 5 -70 c10 -125
65 -175 193 -175 l67 0 0 -335 c0 -223 4 -342 11 -358 22 -49 42 -52 328 -52
146 0 278 3 293 8 58 16 58 17 58 587 0 535 -1 548 -39 577 -12 9 -93 12 -304
13 l-289 0 -29 -29 -29 -29 0 -176 c0 -189 -6 -209 -45 -143 -16 26 -20 55
-23 167 -4 149 -11 182 -48 199 -34 15 -564 15 -597 0 -38 -17 -47 -50 -47
-180 l0 -119 -32 -20 c-18 -11 -36 -20 -40 -20 -5 0 -8 28 -8 62 0 47 6 71 24
102 34 59 50 118 42 161 -9 45 -68 112 -121 136 -63 29 -172 25 -271 -10z
m274 -7 c178 -89 117 -295 -159 -540 -35 -32 -65 -61 -67 -65 -2 -4 4 -19 14
-34 l17 -26 66 64 c207 200 462 272 599 170 102 -77 96 -202 -18 -376 -85
-132 -257 -296 -372 -357 -53 -27 -58 -41 -58 -150 0 -48 4 -71 15 -80 20 -17
19 -40 -2 -40 -30 0 -81 37 -98 71 -12 23 -16 51 -14 105 2 48 -1 78 -9 86
-17 17 -15 36 6 42 14 5 22 24 30 71 7 35 15 71 18 80 5 11 0 15 -19 15 -27 0
-64 26 -112 79 l-32 34 -16 -48 c-21 -61 -22 -128 -2 -145 8 -7 15 -19 15 -26
0 -24 -38 -15 -75 17 -64 57 -70 143 -16 249 l28 54 -35 53 c-19 29 -38 53
-43 53 -4 0 -14 3 -22 6 -12 4 -19 -15 -33 -93 -25 -136 -25 -235 0 -262 16
-18 17 -21 3 -27 -20 -7 -70 19 -96 52 -45 58 -16 301 68 564 22 69 47 134 55
145 14 19 15 19 50 2 20 -9 39 -23 42 -30 3 -8 -5 -38 -16 -68 -27 -67 -60
-170 -60 -187 0 -22 37 4 128 92 104 100 164 176 203 260 76 163 -20 197 -247
86 -80 -39 -119 -66 -183 -126 -180 -169 -274 -365 -226 -468 10 -20 15 -39
12 -43 -14 -13 -70 22 -94 59 -23 34 -25 45 -21 112 4 58 12 88 42 148 79 160
231 311 390 388 96 47 139 58 227 59 51 1 76 -4 117 -25z m-8 -72 c0 -11 -12
-22 -33 -30 -72 -26 -107 -92 -107 -199 0 -62 -2 -67 -37 -102 l-38 -36 -6 70
c-6 74 -28 129 -75 185 -22 26 -25 33 -13 41 107 72 309 118 309 71z m-36 -65
c10 -7 16 -22 14 -33 -2 -14 -12 -19 -41 -20 -47 -1 -52 7 -26 40 23 30 28 31
53 13z m-284 -42 c11 -13 9 -15 -13 -13 -20 2 -23 5 -15 15 13 16 13 16 28 -2z
m38 -45 c7 -11 8 -20 3 -20 -6 0 -12 4 -15 9 -10 16 -76 19 -76 3 0 -7 -4 -11
-9 -8 -5 3 -8 -2 -7 -11 1 -17 -50 -40 -62 -28 -4 4 10 22 30 41 31 28 46 34
80 34 32 0 46 -5 56 -20z m223 -12 c-26 -43 -47 -56 -62 -41 -9 9 -8 18 4 37
12 18 13 26 4 29 -6 3 8 6 31 6 l44 1 -21 -32z m-611 -60 c-1 -14 -34 -58 -44
-58 -8 0 -8 55 1 63 11 12 43 8 43 -5z m233 -16 c24 -21 22 -50 -17 -203 -45
-175 -57 -243 -58 -338 0 -90 17 -133 63 -159 34 -20 35 -26 9 -52 -19 -19
-31 -20 -148 -18 l-127 3 -3 169 -2 168 35 -6 c44 -9 56 13 31 54 -21 37 -20
68 5 143 25 75 79 167 132 224 39 42 46 44 80 15z m1835 -375 l2 -398 -152 3
-153 3 -3 385 c-1 212 0 391 3 398 3 10 39 12 152 10 l148 -3 3 -398z m-1538
114 c0 -11 -11 -32 -24 -47 -23 -28 -23 -28 -35 -7 -9 19 -7 25 22 47 39 31
37 31 37 7z m775 -361 l0 -145 -152 -3 -153 -3 0 47 c0 41 6 53 58 117 32 40
69 87 81 105 23 33 24 33 94 30 l72 -3 0 -145z"/>
<path d="M2460 1117 c-36 -12 -98 -41 -137 -65 -71 -41 -243 -194 -243 -215 0
-18 110 -121 119 -111 5 5 16 34 26 64 28 87 56 150 69 150 17 0 76 -38 76
-50 0 -5 -20 -69 -44 -142 -24 -73 -48 -151 -52 -172 l-7 -39 34 23 c51 36
190 177 237 241 90 123 137 252 113 312 -10 25 -14 27 -68 27 -33 0 -86 -10
-123 -23z m181 -14 c10 -28 3 -83 -11 -83 -5 0 -22 11 -38 25 -17 14 -33 25
-36 25 -10 0 -7 -99 5 -146 9 -36 9 -51 -1 -70 -8 -13 -17 -24 -22 -24 -9 0
-11 284 -1 293 3 4 26 7 50 7 38 0 45 -3 54 -27z m-301 -113 c0 -49 -1 -50
-25 -44 -15 4 -32 1 -40 -6 -13 -11 -15 -7 -15 24 0 30 5 40 33 56 17 11 35
20 40 20 4 0 7 -23 7 -50z m-24 -399 c-31 -30 -33 -19 -11 54 24 80 29 84 33
26 3 -47 0 -58 -22 -80z"/>
<path d="M331 1482 c-45 -22 -71 -59 -82 -113 -4 -24 -8 -247 -9 -496 0 -465
-2 -487 -41 -529 -28 -30 -11 -38 64 -29 76 8 126 34 152 77 19 31 20 56 26
533 3 275 6 501 7 502 1 1 16 18 33 38 l31 35 -73 0 c-51 0 -85 -6 -108 -18z"/>
</g>
</svg>
