<svg xmlns="http://www.w3.org/2000/svg" viewBox="0 0 444 527"><path style="fill:#ed1c24" d="M0 0h444v527H0v-86h87.008l33.18-226.538 46.342 37.019-28.518 102.83 84.183-60.053 85.554 61.15-28.792-104.475 44.971-35.374L357.107 442H416V22H295.295l24.141 162-61.724-.821-34.584-101.524-34.822 101.25-63.919 1.916L149.077 22H27l1.113 419H0V0z"/><path style="fill:#fff" d="M40.322 462h11.442L64 499.345V462h13.667l6.27 29.237L91.492 462H105v41h-9.74l.622-27.632L88.394 503h-9.101L73 475.263 72.747 503h-19.32l-1.699-7.175H40.675L38.578 503H26.496l13.826-41zM107 462v41h10v-27.915L122.139 503h10.598L139 474.14V503h9v-41h-14.302l-6.198 29.519L120.984 462H107zm43 0v30.515a15.619 15.619 0 0 0 4.91 7.56 16.094 16.094 0 0 0 10.773 3.622 15.928 15.928 0 0 0 11.406-3.464 15.327 15.327 0 0 0 4.911-7.718V462h-11v28.94a5.563 5.563 0 0 1-11 0V462Zm56.588-2.639L201.075 477h-17.796l13.859 11.497-4.41 16.379 13.86-9.134 13.544 9.134-4.095-16.064 13.86-11.34-17.639-.472-5.67-17.639zM233 463v40h10v-20.376L254.5 503H266v-40h-10v24.324L244.114 463H233zm47.249 0L266 503h12.393l2.057-8 10.371-.148 2.196 8.148h11.652l-13.948-40h-10.472z"/><path style="fill:#ed1c24" d="M285.177 474.66 281.555 486h7.874l-4.252-11.34z"/><path style="fill:#fff" d="M299 463v9h10v31h11v-31h10v-9h-31zm33 0h10v40h-10zm31.451-.316c-2.81-.041-8.276-.121-12.914 3.623-5.792 4.675-6.241 12.044-6.457 15.591-.223 3.649-.726 11.914 5.355 17.64 5.43 5.114 12.499 4.8 14.174 4.725 1.347-.06 10.593-.62 15.592-8.033 2.968-4.4 2.902-8.938 2.835-13.544-.075-5.162-.152-10.41-3.938-14.647-4.653-5.208-11.717-5.312-14.647-5.355Z"/><path d="M363.284 471.613a8.425 8.425 0 0 0-6.062 2.799A12.628 12.628 0 0 0 353.9 483c.007 5.547 4.236 12.072 9.385 11.918 5.29-.159 8.835-6.183 8.856-11.918.019-5.032-3.79-11.411-8.856-11.387Z" style="fill:#ed1c24"/><path style="fill:#fff" d="M385 463.01V504h9v-24.306L406.525 504H418v-41l-9.837.01.794 24.634L395.947 463l-10.947.01z"/><path style="fill:#ed1c24" d="M46.3 475.422 42.208 488h8.183L46.3 475.422z"/><path style="fill:#fff" d="M27 22h122.077l-24.69 162.821 63.919-1.916 34.822-101.25 34.584 101.524 61.724.821-24.141-162H416v420h-58.893l-33.179-226.441-44.971 35.374 28.792 104.475-85.554-61.15-84.183 60.053 28.518-102.83-46.342-37.019L87.008 441H28.113L27 22z"/></svg>